<svg width="64" height="64" viewBox="0 0 64 64" fill="none" xmlns="http://www.w3.org/2000/svg">
<rect width="64" height="64" rx="4" fill="#141C2F"/>
<path fill-rule="evenodd" clip-rule="evenodd" d="M32.354 19.2533C25.1556 19.2533 19.3213 25.0876 19.3213 32.286C19.3213 38.0432 23.0544 42.9288 28.2341 44.6536C28.8861 44.7712 29.1213 44.3701 29.1213 44.0251C29.1213 43.7155 29.1108 42.8949 29.1069 41.809C25.4809 42.5956 24.7152 40.0607 24.7152 40.0607C24.1246 38.5554 23.2687 38.1543 23.2687 38.1543C22.0862 37.3455 23.3589 37.3637 23.3589 37.3637C24.6682 37.4552 25.3542 38.707 25.3542 38.707C26.5171 40.6984 28.4065 40.1234 29.1461 39.7902C29.265 38.9474 29.6048 38.3725 29.9758 38.0471C27.0829 37.7192 24.041 36.6007 24.041 31.6053C24.041 30.1849 24.5493 29.0194 25.379 28.1099C25.247 27.7793 24.7962 26.4531 25.5084 24.6603C25.5084 24.6603 26.602 24.3088 29.0912 25.9944C30.1543 25.7052 31.2509 25.5576 32.3527 25.5554C33.4544 25.5572 34.5511 25.7048 35.6141 25.9944C38.1046 24.3075 39.197 24.6603 39.197 24.6603C39.9091 26.4531 39.4622 27.7793 39.3264 28.1099C40.1626 29.0194 40.6644 30.1836 40.6644 31.6053C40.6644 36.6137 37.6198 37.7139 34.7164 38.0367C35.1803 38.4391 35.5984 39.2336 35.5984 40.4488C35.5984 42.1919 35.5828 43.5979 35.5828 44.0251C35.5828 44.374 35.8153 44.7791 36.4804 44.651C41.6574 42.9236 45.3867 38.0419 45.3867 32.286C45.3867 25.0876 39.5524 19.2533 32.354 19.2533Z" fill="#EFF6FB"/>
<path d="M32.2134 45.8667C39.7539 45.8667 45.8667 39.7539 45.8667 32.2133C45.8667 24.6728 39.7539 18.56 32.2134 18.56C24.6729 18.56 18.5601 24.6728 18.5601 32.2133C18.5601 39.7539 24.6729 45.8667 32.2134 45.8667Z" stroke="black" stroke-width="2" stroke-linecap="round" stroke-linejoin="round"/>
<path d="M49.28 49.28L41.856 41.856" stroke="black" stroke-width="2" stroke-linecap="round" stroke-linejoin="round"/>
</svg>
