<svg width="59" height="18" viewBox="0 0 59 18" fill="none" xmlns="http://www.w3.org/2000/svg">
<path d="M5.208 13.136H4.992C4.928 13.272 4.848 13.404 4.752 13.532C4.664 13.652 4.544 13.76 4.392 13.856C4.248 13.952 4.072 14.028 3.864 14.084C3.664 14.14 3.42 14.168 3.132 14.168C2.764 14.168 2.42 14.104 2.1 13.976C1.788 13.84 1.512 13.644 1.272 13.388C1.04 13.124 0.856 12.804 0.72 12.428C0.592 12.052 0.528 11.62 0.528 11.132V10.916C0.528 10.436 0.596 10.008 0.732 9.632C0.876 9.256 1.068 8.94 1.308 8.684C1.556 8.42 1.84 8.22 2.16 8.084C2.488 7.948 2.832 7.88 3.192 7.88C3.672 7.88 4.052 7.972 4.332 8.156C4.612 8.332 4.832 8.584 4.992 8.912H5.208V5.6H6.72V14H5.208V13.136ZM3.624 12.728C4.096 12.728 4.476 12.58 4.764 12.284C5.06 11.98 5.208 11.584 5.208 11.096V10.952C5.208 10.464 5.06 10.072 4.764 9.776C4.476 9.472 4.096 9.32 3.624 9.32C3.152 9.32 2.768 9.468 2.472 9.764C2.184 10.052 2.04 10.448 2.04 10.952V11.096C2.04 11.6 2.184 12 2.472 12.296C2.768 12.584 3.152 12.728 3.624 12.728ZM9.61566 11.516C9.62366 11.692 9.66366 11.856 9.73566 12.008C9.81566 12.152 9.91966 12.28 10.0477 12.392C10.1837 12.496 10.3357 12.58 10.5037 12.644C10.6797 12.7 10.8637 12.728 11.0557 12.728C11.4317 12.728 11.7197 12.664 11.9197 12.536C12.1197 12.4 12.2637 12.24 12.3517 12.056L13.6477 12.776C13.5757 12.928 13.4757 13.088 13.3477 13.256C13.2197 13.416 13.0517 13.564 12.8437 13.7C12.6437 13.836 12.3957 13.948 12.0997 14.036C11.8117 14.124 11.4717 14.168 11.0797 14.168C10.6317 14.168 10.2237 14.096 9.85566 13.952C9.48766 13.808 9.16766 13.6 8.89566 13.328C8.63166 13.056 8.42366 12.724 8.27166 12.332C8.12766 11.94 8.05566 11.496 8.05566 11V10.928C8.05566 10.472 8.13166 10.056 8.28366 9.68C8.44366 9.304 8.65966 8.984 8.93166 8.72C9.20366 8.456 9.51966 8.252 9.87966 8.108C10.2477 7.956 10.6397 7.88 11.0557 7.88C11.5677 7.88 12.0077 7.972 12.3757 8.156C12.7437 8.332 13.0477 8.56 13.2877 8.84C13.5277 9.112 13.7037 9.416 13.8157 9.752C13.9277 10.08 13.9837 10.4 13.9837 10.712V11.516H9.61566ZM11.0437 9.248C10.6597 9.248 10.3477 9.348 10.1077 9.548C9.86766 9.74 9.71166 9.964 9.63966 10.22H12.4477C12.3997 9.94 12.2477 9.708 11.9917 9.524C11.7437 9.34 11.4277 9.248 11.0437 9.248ZM15.2113 8.048H16.8433L18.2473 13.28H18.4633L19.8673 8.048H21.4993L19.7953 14H16.9153L15.2113 8.048ZM26.651 6.272C26.651 6.12 26.679 5.976 26.735 5.84C26.799 5.696 26.883 5.576 26.987 5.48C27.091 5.376 27.211 5.296 27.347 5.24C27.483 5.176 27.631 5.144 27.791 5.144C28.103 5.144 28.367 5.256 28.583 5.48C28.807 5.696 28.919 5.96 28.919 6.272C28.919 6.432 28.887 6.58 28.823 6.716C28.767 6.852 28.687 6.972 28.583 7.076C28.487 7.18 28.367 7.264 28.223 7.328C28.087 7.384 27.943 7.412 27.791 7.412C27.631 7.412 27.483 7.384 27.347 7.328C27.211 7.264 27.091 7.18 26.987 7.076C26.883 6.972 26.799 6.852 26.735 6.716C26.679 6.58 26.651 6.432 26.651 6.272ZM22.331 8.048H23.735V6.824C23.735 6.48 23.851 6.192 24.083 5.96C24.315 5.72 24.603 5.6 24.947 5.6H26.075V7.04H25.571C25.355 7.04 25.247 7.16 25.247 7.4V8.048H28.547V14H27.035V9.488H25.247V14H23.735V9.488H22.331V8.048ZM31.8386 14H30.3266V8.048H31.8386V8.936H32.0546C32.1906 8.6 32.4106 8.34 32.7146 8.156C33.0186 7.972 33.3746 7.88 33.7826 7.88C34.0706 7.88 34.3386 7.928 34.5866 8.024C34.8426 8.112 35.0666 8.252 35.2586 8.444C35.4506 8.636 35.5986 8.88 35.7026 9.176C35.8146 9.472 35.8706 9.824 35.8706 10.232V14H34.3586V10.616C34.3586 10.192 34.2546 9.86 34.0466 9.62C33.8466 9.372 33.5546 9.248 33.1706 9.248C32.7226 9.248 32.3866 9.4 32.1626 9.704C31.9466 10 31.8386 10.4 31.8386 10.904V14ZM41.9463 13.136H41.7303C41.6663 13.272 41.5863 13.404 41.4903 13.532C41.4023 13.652 41.2823 13.76 41.1303 13.856C40.9863 13.952 40.8103 14.028 40.6023 14.084C40.4023 14.14 40.1583 14.168 39.8703 14.168C39.5023 14.168 39.1583 14.104 38.8383 13.976C38.5263 13.84 38.2503 13.644 38.0103 13.388C37.7783 13.124 37.5943 12.804 37.4583 12.428C37.3303 12.052 37.2663 11.62 37.2663 11.132V10.916C37.2663 10.436 37.3343 10.008 37.4703 9.632C37.6143 9.256 37.8063 8.94 38.0463 8.684C38.2943 8.42 38.5783 8.22 38.8983 8.084C39.2263 7.948 39.5703 7.88 39.9303 7.88C40.4103 7.88 40.7903 7.972 41.0703 8.156C41.3503 8.332 41.5703 8.584 41.7303 8.912H41.9463V5.6H43.4583V14H41.9463V13.136ZM40.3623 12.728C40.8343 12.728 41.2143 12.58 41.5023 12.284C41.7983 11.98 41.9463 11.584 41.9463 11.096V10.952C41.9463 10.464 41.7983 10.072 41.5023 9.776C41.2143 9.472 40.8343 9.32 40.3623 9.32C39.8903 9.32 39.5063 9.468 39.2103 9.764C38.9223 10.052 38.7783 10.448 38.7783 10.952V11.096C38.7783 11.6 38.9223 12 39.2103 12.296C39.5063 12.584 39.8903 12.728 40.3623 12.728ZM46.3539 11.516C46.3619 11.692 46.4019 11.856 46.4739 12.008C46.5539 12.152 46.6579 12.28 46.7859 12.392C46.9219 12.496 47.0739 12.58 47.2419 12.644C47.4179 12.7 47.6019 12.728 47.7939 12.728C48.1699 12.728 48.4579 12.664 48.6579 12.536C48.8579 12.4 49.0019 12.24 49.0899 12.056L50.3859 12.776C50.3139 12.928 50.2139 13.088 50.0859 13.256C49.9579 13.416 49.7899 13.564 49.5819 13.7C49.3819 13.836 49.1339 13.948 48.8379 14.036C48.5499 14.124 48.2099 14.168 47.8179 14.168C47.3699 14.168 46.9619 14.096 46.5939 13.952C46.2259 13.808 45.9059 13.6 45.6339 13.328C45.3699 13.056 45.1619 12.724 45.0099 12.332C44.8659 11.94 44.7939 11.496 44.7939 11V10.928C44.7939 10.472 44.8699 10.056 45.0219 9.68C45.1819 9.304 45.3979 8.984 45.6699 8.72C45.9419 8.456 46.2579 8.252 46.6179 8.108C46.9859 7.956 47.3779 7.88 47.7939 7.88C48.3059 7.88 48.7459 7.972 49.1139 8.156C49.4819 8.332 49.7859 8.56 50.0259 8.84C50.2659 9.112 50.4419 9.416 50.5539 9.752C50.6659 10.08 50.7219 10.4 50.7219 10.712V11.516H46.3539ZM47.7819 9.248C47.3979 9.248 47.0859 9.348 46.8459 9.548C46.6059 9.74 46.4499 9.964 46.3779 10.22H49.1859C49.1379 9.94 48.9859 9.708 48.7299 9.524C48.4819 9.34 48.1659 9.248 47.7819 9.248ZM52.0816 8.048H54.6016V8.912H54.8176C54.9296 8.584 55.1176 8.332 55.3816 8.156C55.6536 7.972 55.9776 7.88 56.3536 7.88C56.9456 7.88 57.4216 8.068 57.7816 8.444C58.1416 8.812 58.3216 9.376 58.3216 10.136V10.4L56.7616 10.544V10.376C56.7616 10.048 56.6776 9.788 56.5096 9.596C56.3416 9.396 56.0896 9.296 55.7536 9.296C55.4176 9.296 55.1536 9.412 54.9616 9.644C54.7696 9.876 54.6736 10.208 54.6736 10.64V12.56H56.0416V14H51.9376V12.56H53.1616V9.488H52.0816V8.048Z" fill="#EFF6FB"/>
</svg>
